<?xml version="1.0" encoding="UTF-8" standalone="no"?><svg xmlns="http://www.w3.org/2000/svg" xmlns:xlink="http://www.w3.org/1999/xlink" contentScriptType="application/ecmascript" contentStyleType="text/css" height="543px" preserveAspectRatio="none" style="width:893px;height:543px;" version="1.1" viewBox="0 0 893 543" width="893px" zoomAndPan="magnify"><defs><filter height="300%" id="foz64iojwuk2p" width="300%" x="-1" y="-1"><feGaussianBlur result="blurOut" stdDeviation="2.0"/><feColorMatrix in="blurOut" result="blurOut2" type="matrix" values="0 0 0 0 0 0 0 0 0 0 0 0 0 0 0 0 0 0 .4 0"/><feOffset dx="4.0" dy="4.0" in="blurOut2" result="blurOut3"/><feBlend in="SourceGraphic" in2="blurOut3" mode="normal"/></filter></defs><g><text fill="#000000" font-family="sans-serif" font-size="18" lengthAdjust="spacingAndGlyphs" textLength="359" x="271" y="16.708">Build Support (auto-gen from clang-uml)</text><!--MD5=[40a7350508250198890f3c040204966a]
class C_0007192754921315111484--><rect fill="#FEFECE" filter="url(#foz64iojwuk2p)" height="124.8281" id="C_0007192754921315111484" style="stroke: #A80036; stroke-width: 1.5;" width="122" x="6" y="237.4531"/><ellipse cx="21" cy="253.4531" fill="#EB937F" rx="11" ry="11" style="stroke: #A80036; stroke-width: 1.0;"/><path d="M25.1094,259.4531 L17.3906,259.4531 L17.3906,247.0625 L25.1094,247.0625 L25.1094,249.2188 L19.8438,249.2188 L19.8438,251.8906 L24.6094,251.8906 L24.6094,254.0469 L19.8438,254.0469 L19.8438,257.2969 L25.1094,257.2969 L25.1094,259.4531 Z "/><text fill="#000000" font-family="sans-serif" font-size="12" lengthAdjust="spacingAndGlyphs" textLength="90" x="35" y="257.6074">build::Machine</text><line style="stroke: #A80036; stroke-width: 1.5;" x1="7" x2="127" y1="269.4531" y2="269.4531"/><text fill="#000000" font-family="sans-serif" font-size="11" lengthAdjust="spacingAndGlyphs" textLength="44" x="12" y="283.6636">Generic</text><text fill="#000000" font-family="sans-serif" font-size="11" lengthAdjust="spacingAndGlyphs" textLength="74" x="12" y="296.4683">FujiNetESP32</text><text fill="#000000" font-family="sans-serif" font-size="11" lengthAdjust="spacingAndGlyphs" textLength="48" x="12" y="309.2729">Atari8Bit</text><text fill="#000000" font-family="sans-serif" font-size="11" lengthAdjust="spacingAndGlyphs" textLength="22" x="12" y="322.0776">C64</text><text fill="#000000" font-family="sans-serif" font-size="11" lengthAdjust="spacingAndGlyphs" textLength="38" x="12" y="334.8823">Apple2</text><text fill="#000000" font-family="sans-serif" font-size="11" lengthAdjust="spacingAndGlyphs" textLength="48" x="12" y="347.687">FujiNetPi</text><line style="stroke: #A80036; stroke-width: 1.5;" x1="7" x2="127" y1="354.2813" y2="354.2813"/><!--MD5=[f4777b3fab596dfde460c94d20a0575c]
class C_0002950475094340712788--><rect fill="#FEFECE" filter="url(#foz64iojwuk2p)" height="112.0234" id="C_0002950475094340712788" style="stroke: #A80036; stroke-width: 1.5;" width="157" x="163.5" y="243.9531"/><ellipse cx="178.5" cy="259.9531" fill="#EB937F" rx="11" ry="11" style="stroke: #A80036; stroke-width: 1.0;"/><path d="M182.6094,265.9531 L174.8906,265.9531 L174.8906,253.5625 L182.6094,253.5625 L182.6094,255.7188 L177.3438,255.7188 L177.3438,258.3906 L182.1094,258.3906 L182.1094,260.5469 L177.3438,260.5469 L177.3438,263.7969 L182.6094,263.7969 L182.6094,265.9531 Z "/><text fill="#000000" font-family="sans-serif" font-size="12" lengthAdjust="spacingAndGlyphs" textLength="125" x="192.5" y="264.1074">build::TransportKind</text><line style="stroke: #A80036; stroke-width: 1.5;" x1="164.5" x2="319.5" y1="275.9531" y2="275.9531"/><text fill="#000000" font-family="sans-serif" font-size="11" lengthAdjust="spacingAndGlyphs" textLength="62" x="169.5" y="290.1636">FujiBusSlip</text><text fill="#000000" font-family="sans-serif" font-size="11" lengthAdjust="spacingAndGlyphs" textLength="76" x="169.5" y="302.9683">FujiBusNative</text><text fill="#000000" font-family="sans-serif" font-size="11" lengthAdjust="spacingAndGlyphs" textLength="20" x="169.5" y="315.7729">SIO</text><text fill="#000000" font-family="sans-serif" font-size="11" lengthAdjust="spacingAndGlyphs" textLength="21" x="169.5" y="328.5776">IWM</text><text fill="#000000" font-family="sans-serif" font-size="11" lengthAdjust="spacingAndGlyphs" textLength="18" x="169.5" y="341.3823">IEC</text><line style="stroke: #A80036; stroke-width: 1.5;" x1="164.5" x2="319.5" y1="347.9766" y2="347.9766"/><!--MD5=[1fa166170b0cad0dc334d2cfa1d49ad1]
class C_0018157593848838900415--><rect fill="#FEFECE" filter="url(#foz64iojwuk2p)" height="137.6328" id="C_0018157593848838900415" style="stroke: #A80036; stroke-width: 1.5;" width="147" x="355.5" y="230.9531"/><ellipse cx="370.5" cy="246.9531" fill="#EB937F" rx="11" ry="11" style="stroke: #A80036; stroke-width: 1.0;"/><path d="M374.6094,252.9531 L366.8906,252.9531 L366.8906,240.5625 L374.6094,240.5625 L374.6094,242.7188 L369.3438,242.7188 L369.3438,245.3906 L374.1094,245.3906 L374.1094,247.5469 L369.3438,247.5469 L369.3438,250.7969 L374.6094,250.7969 L374.6094,252.9531 Z "/><text fill="#000000" font-family="sans-serif" font-size="12" lengthAdjust="spacingAndGlyphs" textLength="115" x="384.5" y="251.1074">build::ChannelKind</text><line style="stroke: #A80036; stroke-width: 1.5;" x1="356.5" x2="501.5" y1="262.9531" y2="262.9531"/><text fill="#000000" font-family="sans-serif" font-size="11" lengthAdjust="spacingAndGlyphs" textLength="17" x="361.5" y="277.1636">Pty</text><text fill="#000000" font-family="sans-serif" font-size="11" lengthAdjust="spacingAndGlyphs" textLength="80" x="361.5" y="289.9683">UsbCdcDevice</text><text fill="#000000" font-family="sans-serif" font-size="11" lengthAdjust="spacingAndGlyphs" textLength="58" x="361.5" y="302.7729">TcpSocket</text><text fill="#000000" font-family="sans-serif" font-size="11" lengthAdjust="spacingAndGlyphs" textLength="60" x="361.5" y="315.5776">UdpSocket</text><text fill="#000000" font-family="sans-serif" font-size="11" lengthAdjust="spacingAndGlyphs" textLength="50" x="361.5" y="328.3823">UartGpio</text><text fill="#000000" font-family="sans-serif" font-size="11" lengthAdjust="spacingAndGlyphs" textLength="44" x="361.5" y="341.187">SioGpio</text><text fill="#000000" font-family="sans-serif" font-size="11" lengthAdjust="spacingAndGlyphs" textLength="56" x="361.5" y="353.9917">SerialPort</text><line style="stroke: #A80036; stroke-width: 1.5;" x1="356.5" x2="501.5" y1="360.5859" y2="360.5859"/><!--MD5=[8d16fca3e6067de56111ea128d762350]
class C_0008019720847980173585--><rect fill="#FEFECE" filter="url(#foz64iojwuk2p)" height="86.4141" id="C_0008019720847980173585" style="stroke: #A80036; stroke-width: 1.5;" width="211" x="405.5" y="445.9531"/><ellipse cx="428.6" cy="461.9531" fill="#ADD1B2" rx="11" ry="11" style="stroke: #A80036; stroke-width: 1.0;"/><path d="M431.5688,467.5938 Q430.9906,467.8906 430.35,468.0313 Q429.7094,468.1875 429.0063,468.1875 Q426.5063,468.1875 425.1781,466.5469 Q423.8656,464.8906 423.8656,461.7656 Q423.8656,458.6406 425.1781,456.9844 Q426.5063,455.3281 429.0063,455.3281 Q429.7094,455.3281 430.35,455.4844 Q431.0063,455.6406 431.5688,455.9375 L431.5688,458.6563 Q430.9438,458.0781 430.35,457.8125 Q429.7563,457.5313 429.1313,457.5313 Q427.7875,457.5313 427.1,458.6094 Q426.4125,459.6719 426.4125,461.7656 Q426.4125,463.8594 427.1,464.9375 Q427.7875,466 429.1313,466 Q429.7563,466 430.35,465.7344 Q430.9438,465.4531 431.5688,464.875 L431.5688,467.5938 Z "/><text fill="#000000" font-family="sans-serif" font-size="12" lengthAdjust="spacingAndGlyphs" textLength="161" x="444.4" y="466.1074">build::NetworkCapabilities</text><line style="stroke: #A80036; stroke-width: 1.5;" x1="406.5" x2="615.5" y1="477.9531" y2="477.9531"/><line style="stroke: #A80036; stroke-width: 1.5;" x1="406.5" x2="615.5" y1="485.9531" y2="485.9531"/><ellipse cx="416.5" cy="496.9531" fill="none" rx="3" ry="3" style="stroke: #038048; stroke-width: 1.0;"/><text fill="#000000" font-family="sans-serif" font-size="11" lengthAdjust="spacingAndGlyphs" textLength="132" x="425.5" y="500.1636">hasLocalNetwork : bool</text><ellipse cx="416.5" cy="509.7578" fill="none" rx="3" ry="3" style="stroke: #038048; stroke-width: 1.0;"/><text fill="#000000" font-family="sans-serif" font-size="11" lengthAdjust="spacingAndGlyphs" textLength="150" x="425.5" y="512.9683">managesItsOwnLink : bool</text><ellipse cx="416.5" cy="522.5625" fill="none" rx="3" ry="3" style="stroke: #038048; stroke-width: 1.0;"/><text fill="#000000" font-family="sans-serif" font-size="11" lengthAdjust="spacingAndGlyphs" textLength="185" x="425.5" y="525.7729">supportsAccessPointMode : bool</text><!--MD5=[faf281c5f6a428c9bb203732cf0c6d6f]
class C_0004735246185757737530--><rect fill="#FEFECE" filter="url(#foz64iojwuk2p)" height="86.4141" id="C_0004735246185757737530" style="stroke: #A80036; stroke-width: 1.5;" width="231" x="651.5" y="445.9531"/><ellipse cx="684.95" cy="461.9531" fill="#ADD1B2" rx="11" ry="11" style="stroke: #A80036; stroke-width: 1.0;"/><path d="M687.9188,467.5938 Q687.3406,467.8906 686.7,468.0313 Q686.0594,468.1875 685.3563,468.1875 Q682.8563,468.1875 681.5281,466.5469 Q680.2156,464.8906 680.2156,461.7656 Q680.2156,458.6406 681.5281,456.9844 Q682.8563,455.3281 685.3563,455.3281 Q686.0594,455.3281 686.7,455.4844 Q687.3563,455.6406 687.9188,455.9375 L687.9188,458.6563 Q687.2938,458.0781 686.7,457.8125 Q686.1063,457.5313 685.4813,457.5313 Q684.1375,457.5313 683.45,458.6094 Q682.7625,459.6719 682.7625,461.7656 Q682.7625,463.8594 683.45,464.9375 Q684.1375,466 685.4813,466 Q686.1063,466 686.7,465.7344 Q687.2938,465.4531 687.9188,464.875 L687.9188,467.5938 Z "/><text fill="#000000" font-family="sans-serif" font-size="12" lengthAdjust="spacingAndGlyphs" textLength="158" x="703.05" y="466.1074">build::MemoryCapabilities</text><line style="stroke: #A80036; stroke-width: 1.5;" x1="652.5" x2="881.5" y1="477.9531" y2="477.9531"/><line style="stroke: #A80036; stroke-width: 1.5;" x1="652.5" x2="881.5" y1="485.9531" y2="485.9531"/><ellipse cx="662.5" cy="496.9531" fill="none" rx="3" ry="3" style="stroke: #038048; stroke-width: 1.0;"/><text fill="#000000" font-family="sans-serif" font-size="11" lengthAdjust="spacingAndGlyphs" textLength="169" x="671.5" y="500.1636">hasDedicatedLargePool : bool</text><ellipse cx="662.5" cy="509.7578" fill="none" rx="3" ry="3" style="stroke: #038048; stroke-width: 1.0;"/><text fill="#000000" font-family="sans-serif" font-size="11" lengthAdjust="spacingAndGlyphs" textLength="200" x="671.5" y="512.9683">largeMemoryPoolBytes : std::size_t</text><ellipse cx="662.5" cy="522.5625" fill="none" rx="3" ry="3" style="stroke: #038048; stroke-width: 1.0;"/><text fill="#000000" font-family="sans-serif" font-size="11" lengthAdjust="spacingAndGlyphs" textLength="205" x="671.5" y="525.7729">persistentStorageBytes : std::size_t</text><!--MD5=[1f4a2d6517045b967292a5c7d11e4cd2]
class C_0013796263537013607309--><rect fill="#FEFECE" filter="url(#foz64iojwuk2p)" height="99.2188" id="C_0013796263537013607309" style="stroke: #A80036; stroke-width: 1.5;" width="202" x="538" y="250.4531"/><ellipse cx="553" cy="266.4531" fill="#ADD1B2" rx="11" ry="11" style="stroke: #A80036; stroke-width: 1.0;"/><path d="M555.9688,272.0938 Q555.3906,272.3906 554.75,272.5313 Q554.1094,272.6875 553.4063,272.6875 Q550.9063,272.6875 549.5781,271.0469 Q548.2656,269.3906 548.2656,266.2656 Q548.2656,263.1406 549.5781,261.4844 Q550.9063,259.8281 553.4063,259.8281 Q554.1094,259.8281 554.75,259.9844 Q555.4063,260.1406 555.9688,260.4375 L555.9688,263.1563 Q555.3438,262.5781 554.75,262.3125 Q554.1563,262.0313 553.5313,262.0313 Q552.1875,262.0313 551.5,263.1094 Q550.8125,264.1719 550.8125,266.2656 Q550.8125,268.3594 551.5,269.4375 Q552.1875,270.5 553.5313,270.5 Q554.1563,270.5 554.75,270.2344 Q555.3438,269.9531 555.9688,269.375 L555.9688,272.0938 Z "/><text fill="#000000" font-family="sans-serif" font-size="12" lengthAdjust="spacingAndGlyphs" textLength="170" x="567" y="270.6074">build::HardwareCapabilities</text><line style="stroke: #A80036; stroke-width: 1.5;" x1="539" x2="739" y1="282.4531" y2="282.4531"/><line style="stroke: #A80036; stroke-width: 1.5;" x1="539" x2="739" y1="290.4531" y2="290.4531"/><ellipse cx="549" cy="301.4531" fill="none" rx="3" ry="3" style="stroke: #038048; stroke-width: 1.0;"/><text fill="#000000" font-family="sans-serif" font-size="11" lengthAdjust="spacingAndGlyphs" textLength="116" x="558" y="304.6636">hasUsbDevice : bool</text><ellipse cx="549" cy="314.2578" fill="none" rx="3" ry="3" style="stroke: #038048; stroke-width: 1.0;"/><text fill="#000000" font-family="sans-serif" font-size="11" lengthAdjust="spacingAndGlyphs" textLength="105" x="558" y="317.4683">hasUsbHost : bool</text><ellipse cx="549" cy="327.0625" fill="none" rx="3" ry="3" style="stroke: #038048; stroke-width: 1.0;"/><text fill="#000000" font-family="sans-serif" font-size="11" lengthAdjust="spacingAndGlyphs" textLength="170" x="558" y="330.2729">memory : MemoryCapabilities</text><ellipse cx="549" cy="339.8672" fill="none" rx="3" ry="3" style="stroke: #038048; stroke-width: 1.0;"/><text fill="#000000" font-family="sans-serif" font-size="11" lengthAdjust="spacingAndGlyphs" textLength="169" x="558" y="343.0776">network : NetworkCapabilities</text><!--MD5=[e31e1e6a728d91b8b81a785ea56fc53c]
class C_0000758950242649922238--><rect fill="#FEFECE" filter="url(#foz64iojwuk2p)" height="124.8281" id="C_0000758950242649922238" style="stroke: #A80036; stroke-width: 1.5;" width="218" x="226" y="28.9531"/><ellipse cx="277.25" cy="44.9531" fill="#ADD1B2" rx="11" ry="11" style="stroke: #A80036; stroke-width: 1.0;"/><path d="M280.2188,50.5938 Q279.6406,50.8906 279,51.0313 Q278.3594,51.1875 277.6563,51.1875 Q275.1563,51.1875 273.8281,49.5469 Q272.5156,47.8906 272.5156,44.7656 Q272.5156,41.6406 273.8281,39.9844 Q275.1563,38.3281 277.6563,38.3281 Q278.3594,38.3281 279,38.4844 Q279.6563,38.6406 280.2188,38.9375 L280.2188,41.6563 Q279.5938,41.0781 279,40.8125 Q278.4063,40.5313 277.7813,40.5313 Q276.4375,40.5313 275.75,41.6094 Q275.0625,42.6719 275.0625,44.7656 Q275.0625,46.8594 275.75,47.9375 Q276.4375,49 277.7813,49 Q278.4063,49 279,48.7344 Q279.5938,48.4531 280.2188,47.875 L280.2188,50.5938 Z "/><text fill="#000000" font-family="sans-serif" font-size="12" lengthAdjust="spacingAndGlyphs" textLength="107" x="297.75" y="49.1074">build::BuildProfile</text><line style="stroke: #A80036; stroke-width: 1.5;" x1="227" x2="443" y1="60.9531" y2="60.9531"/><line style="stroke: #A80036; stroke-width: 1.5;" x1="227" x2="443" y1="68.9531" y2="68.9531"/><ellipse cx="237" cy="79.9531" fill="none" rx="3" ry="3" style="stroke: #038048; stroke-width: 1.0;"/><text fill="#000000" font-family="sans-serif" font-size="11" lengthAdjust="spacingAndGlyphs" textLength="149" x="246" y="83.1636">hw : HardwareCapabilities</text><ellipse cx="237" cy="92.7578" fill="none" rx="3" ry="3" style="stroke: #038048; stroke-width: 1.0;"/><text fill="#000000" font-family="sans-serif" font-size="11" lengthAdjust="spacingAndGlyphs" textLength="106" x="246" y="95.9683">machine : Machine</text><ellipse cx="237" cy="105.5625" fill="none" rx="3" ry="3" style="stroke: #038048; stroke-width: 1.0;"/><text fill="#000000" font-family="sans-serif" font-size="11" lengthAdjust="spacingAndGlyphs" textLength="134" x="246" y="108.7729">name : std::string_view</text><ellipse cx="237" cy="118.3672" fill="none" rx="3" ry="3" style="stroke: #038048; stroke-width: 1.0;"/><text fill="#000000" font-family="sans-serif" font-size="11" lengthAdjust="spacingAndGlyphs" textLength="95" x="246" y="121.5776">packetLink : bool</text><ellipse cx="237" cy="131.1719" fill="none" rx="3" ry="3" style="stroke: #038048; stroke-width: 1.0;"/><text fill="#000000" font-family="sans-serif" font-size="11" lengthAdjust="spacingAndGlyphs" textLength="172" x="246" y="134.3823">primaryChannel : ChannelKind</text><ellipse cx="237" cy="143.9766" fill="none" rx="3" ry="3" style="stroke: #038048; stroke-width: 1.0;"/><text fill="#000000" font-family="sans-serif" font-size="11" lengthAdjust="spacingAndGlyphs" textLength="192" x="246" y="147.187">primaryTransport : TransportKind</text><!--MD5=[dbf3a8a21c7087f3d8f05f8ecff31ba6]
reverse link C_0013796263537013607309 to C_0008019720847980173585--><path d="M598.31,360.4031 C579.27,388.2131 557.05,420.6831 539.78,445.9031 " fill="none" id="C_0013796263537013607309&lt;-C_0008019720847980173585" style="stroke: #A80036; stroke-width: 1.0;"/><polygon fill="#FFFFFF" points="605.7,349.5931,599.0103,352.2853,598.9224,359.4958,605.6121,356.8037,605.7,349.5931" style="stroke: #A80036; stroke-width: 1.0;"/><ellipse cx="578" cy="408.0195" fill="none" rx="3" ry="3" style="stroke: #038048; stroke-width: 1.0;"/><text fill="#000000" font-family="sans-serif" font-size="13" lengthAdjust="spacingAndGlyphs" textLength="50" x="585" y="412.02">network</text><!--MD5=[e072821e07c35e008294749a4d490fa4]
reverse link C_0013796263537013607309 to C_0004735246185757737530--><path d="M679.69,360.4031 C698.73,388.2131 720.95,420.6831 738.22,445.9031 " fill="none" id="C_0013796263537013607309&lt;-C_0004735246185757737530" style="stroke: #A80036; stroke-width: 1.0;"/><polygon fill="#FFFFFF" points="672.3,349.5931,672.3879,356.8037,679.0776,359.4958,678.9897,352.2853,672.3,349.5931" style="stroke: #A80036; stroke-width: 1.0;"/><ellipse cx="720" cy="408.0195" fill="none" rx="3" ry="3" style="stroke: #038048; stroke-width: 1.0;"/><text fill="#000000" font-family="sans-serif" font-size="13" lengthAdjust="spacingAndGlyphs" textLength="54" x="727" y="412.02">memory</text><!--MD5=[61239118c5b35bcd962adadef7089a7a]
reverse link C_0000758950242649922238 to C_0007192754921315111484--><path d="M214.78,159.1331 C202.73,167.0731 190.93,175.4031 180,183.9531 C159.72,199.8131 139.42,219.1331 121.73,237.3631 " fill="none" id="C_0000758950242649922238&lt;-C_0007192754921315111484" style="stroke: #A80036; stroke-width: 1.0;"/><polygon fill="#FFFFFF" points="225.88,151.9531,218.6698,151.841,215.7931,158.4535,223.0034,158.5656,225.88,151.9531" style="stroke: #A80036; stroke-width: 1.0;"/><ellipse cx="186" cy="193.0195" fill="none" rx="3" ry="3" style="stroke: #038048; stroke-width: 1.0;"/><text fill="#000000" font-family="sans-serif" font-size="13" lengthAdjust="spacingAndGlyphs" textLength="55" x="193" y="197.02">machine</text><!--MD5=[bcb910dc42780071d265b00b13002f35]
reverse link C_0000758950242649922238 to C_0002950475094340712788--><path d="M272.14,164.9531 C268.34,171.1631 264.89,177.5231 262,183.9531 C253.64,202.5231 248.77,224.2431 245.92,243.7631 " fill="none" id="C_0000758950242649922238&lt;-C_0002950475094340712788" style="stroke: #A80036; stroke-width: 1.0;"/><polygon fill="#FFFFFF" points="279.32,153.9931,272.6892,156.8274,272.7551,164.0382,279.3859,161.2039,279.32,153.9931" style="stroke: #A80036; stroke-width: 1.0;"/><ellipse cx="268" cy="193.0195" fill="none" rx="3" ry="3" style="stroke: #038048; stroke-width: 1.0;"/><text fill="#000000" font-family="sans-serif" font-size="13" lengthAdjust="spacingAndGlyphs" textLength="110" x="275" y="197.02">primaryTransport</text><!--MD5=[cc561c457a248a78e663268f5e8a1c9f]
reverse link C_0000758950242649922238 to C_0018157593848838900415--><path d="M380.84,165.6431 C384.1,171.7531 387.2,177.9031 390,183.9531 C396.87,198.7731 403.16,215.1631 408.58,230.8131 " fill="none" id="C_0000758950242649922238&lt;-C_0018157593848838900415" style="stroke: #A80036; stroke-width: 1.0;"/><polygon fill="#FFFFFF" points="374.41,153.9831,373.8081,161.1691,380.2097,164.4885,380.8117,157.3026,374.41,153.9831" style="stroke: #A80036; stroke-width: 1.0;"/><ellipse cx="403" cy="193.0195" fill="none" rx="3" ry="3" style="stroke: #038048; stroke-width: 1.0;"/><text fill="#000000" font-family="sans-serif" font-size="13" lengthAdjust="spacingAndGlyphs" textLength="101" x="410" y="197.02">primaryChannel</text><!--MD5=[57d5e54120a0e7f18da794f86522b65f]
reverse link C_0000758950242649922238 to C_0013796263537013607309--><path d="M456.15,145.6231 C478.09,157.1231 500.26,170.0431 520,183.9531 C547.13,203.0631 574,228.3431 595.32,250.3331 " fill="none" id="C_0000758950242649922238&lt;-C_0013796263537013607309" style="stroke: #A80036; stroke-width: 1.0;"/><polygon fill="#FFFFFF" points="444.35,139.5631,447.866,145.859,455.0299,145.0349,451.5139,138.7391,444.35,139.5631" style="stroke: #A80036; stroke-width: 1.0;"/><ellipse cx="548" cy="193.0195" fill="none" rx="3" ry="3" style="stroke: #038048; stroke-width: 1.0;"/><text fill="#000000" font-family="sans-serif" font-size="13" lengthAdjust="spacingAndGlyphs" textLength="17" x="555" y="197.02">hw</text><!--MD5=[45823ce3ce5437dff9bd890a5735b742]
@startuml
title Build Support (auto-gen from clang-uml)
enum "build::Machine" as C_0007192754921315111484
enum C_0007192754921315111484 {
Generic
FujiNetESP32
Atari8Bit
C64
Apple2
FujiNetPi
}
enum "build::TransportKind" as C_0002950475094340712788
enum C_0002950475094340712788 {
FujiBusSlip
FujiBusNative
SIO
IWM
IEC
}
enum "build::ChannelKind" as C_0018157593848838900415
enum C_0018157593848838900415 {
Pty
UsbCdcDevice
TcpSocket
UdpSocket
UartGpio
SioGpio
SerialPort
}
class "build::NetworkCapabilities" as C_0008019720847980173585
class C_0008019720847980173585 {
__
+hasLocalNetwork : bool
+managesItsOwnLink : bool
+supportsAccessPointMode : bool
}
class "build::MemoryCapabilities" as C_0004735246185757737530
class C_0004735246185757737530 {
__
+hasDedicatedLargePool : bool
+largeMemoryPoolBytes : std::size_t
+persistentStorageBytes : std::size_t
}
class "build::HardwareCapabilities" as C_0013796263537013607309
class C_0013796263537013607309 {
__
+hasUsbDevice : bool
+hasUsbHost : bool
+memory : MemoryCapabilities
+network : NetworkCapabilities
}
class "build::BuildProfile" as C_0000758950242649922238
class C_0000758950242649922238 {
__
+hw : HardwareCapabilities
+machine : Machine
+name : std::string_view
+packetLink : bool
+primaryChannel : ChannelKind
+primaryTransport : TransportKind
}
C_0013796263537013607309 o- - C_0008019720847980173585 : +network
C_0013796263537013607309 o- - C_0004735246185757737530 : +memory
C_0000758950242649922238 o- - C_0007192754921315111484 : +machine
C_0000758950242649922238 o- - C_0002950475094340712788 : +primaryTransport
C_0000758950242649922238 o- - C_0018157593848838900415 : +primaryChannel
C_0000758950242649922238 o- - C_0013796263537013607309 : +hw

@enduml

PlantUML version 1.2020.02(Sun Mar 01 10:22:07 UTC 2020)
(GPL source distribution)
Java Runtime: OpenJDK Runtime Environment
JVM: OpenJDK 64-Bit Server VM
Java Version: 17.0.20.1+1
Operating System: Linux
Default Encoding: UTF-8
Language: en
Country: null
--></g></svg>